<?xml version="1.0" encoding="UTF-8"?>
<svg xmlns="http://www.w3.org/2000/svg" viewBox="0 0 400 400">
  <defs>
    <style>
      .cls-1 {
        fill: #00c1de;
      }

      .cls-2 {
        fill: #fff;
      }

      .cls-3 {
        fill: #21346a;
      }
    </style>
  </defs>
  <g id="Title_card" data-name="Title card">
    <rect class="cls-3" width="400" height="400"/>
  </g>
  <g id="Ancillary">
    <g>
      <path class="cls-1" d="m112.91,183.24v36.91h.4c2.48-4.07,5.66-7.14,9.43-9.03,3.87-1.89,7.54-2.78,11.21-2.78,5.26,0,9.53.69,12.8,2.08,3.37,1.39,5.95,3.37,7.84,5.85s3.27,5.56,4.07,9.23c.79,3.57,1.19,7.64,1.19,12.01v43.66h-19.45v-40.08c0-5.85-.89-10.22-2.78-13.1-1.79-2.88-5.06-4.37-9.72-4.37-5.26,0-9.13,1.59-11.51,4.76-2.38,3.18-3.57,8.33-3.57,15.58v37.21h-19.35v-97.93h19.45Z"/>
      <path class="cls-1" d="m187.43,264.1c2.88,2.88,7.14,4.27,12.6,4.27,3.97,0,7.34-.99,10.12-2.98,2.88-1.98,4.56-4.07,5.26-6.25h17.16c-2.78,8.53-6.95,14.59-12.6,18.26-5.66,3.67-12.5,5.46-20.54,5.46-5.56,0-10.62-.89-15.08-2.68-4.46-1.79-8.24-4.37-11.41-7.64-3.08-3.27-5.56-7.24-7.24-11.81-1.69-4.56-2.58-9.62-2.58-15.08s.89-10.22,2.58-14.78c1.79-4.56,4.17-8.53,7.44-11.91,3.18-3.37,7.04-5.95,11.41-7.84,4.46-1.89,9.33-2.88,14.78-2.88,6.05,0,11.31,1.19,15.78,3.47s8.14,5.46,11.01,9.43c2.88,3.97,4.96,8.43,6.25,13.39,1.29,5.06,1.79,10.32,1.39,15.78h-51.2c.3,6.45,1.98,11.01,4.86,13.79Zm22.03-37.31c-2.28-2.58-5.85-3.87-10.62-3.87-3.08,0-5.66.5-7.74,1.59s-3.67,2.38-4.96,3.87c-1.19,1.59-2.08,3.18-2.58,4.96s-.79,3.27-.89,4.66h31.65c-.89-4.86-2.58-8.63-4.86-11.21Z"/>
      <path class="cls-1" d="m255.79,210.22v9.62h.3c2.58-3.67,5.66-6.45,9.23-8.53,3.57-2.08,7.74-2.98,12.4-2.98s8.53.89,12.3,2.58c3.67,1.79,6.55,4.76,8.43,9.23,2.08-3.08,4.96-5.85,8.53-8.24,3.57-2.38,7.84-3.57,12.8-3.57,3.77,0,7.24.5,10.42,1.39s5.95,2.38,8.24,4.37c2.28,1.98,4.07,4.66,5.36,7.84,1.29,3.27,1.89,7.14,1.89,11.71v47.43h-19.45v-40.18c0-2.38-.1-4.66-.3-6.75-.2-2.08-.69-3.97-1.49-5.46-.79-1.59-2.08-2.78-3.67-3.67s-3.77-1.39-6.55-1.39-4.96.5-6.65,1.59-2.98,2.38-3.97,4.07c-.99,1.69-1.59,3.57-1.89,5.75-.3,2.18-.5,4.37-.5,6.55v39.49h-19.45v-39.79c0-2.08-.1-4.17-.1-6.25-.1-2.08-.5-3.97-1.19-5.66-.69-1.69-1.79-3.18-3.47-4.17-1.59-1.09-3.97-1.59-7.04-1.59-.89,0-2.08.2-3.67.6-1.49.4-2.98,1.19-4.37,2.38s-2.58,2.78-3.67,4.96c-.99,2.18-1.49,4.96-1.49,8.43v41.18h-19.45v-70.94h18.45Z"/>
      <path class="cls-1" d="m393.6,235.33v16.77h-41.28v-16.77h41.28Z"/>
      <path class="cls-1" d="m41.77,359.55c.89,1.49,1.98,2.78,3.37,3.67,1.39.99,2.98,1.69,4.76,2.08,1.79.5,3.67.69,5.56.69,1.39,0,2.78-.2,4.37-.5,1.49-.3,2.88-.79,4.07-1.49,1.19-.69,2.28-1.59,3.08-2.78.79-1.19,1.19-2.58,1.19-4.37,0-2.88-1.98-5.16-5.85-6.55-3.87-1.49-9.33-2.88-16.27-4.37-2.88-.6-5.56-1.39-8.33-2.28-2.68-.89-5.06-1.98-7.24-3.47-2.08-1.39-3.77-3.18-5.06-5.36-1.29-2.18-1.89-4.76-1.89-7.84,0-4.56.89-8.33,2.68-11.21,1.79-2.88,4.17-5.26,7.04-6.95,2.88-1.69,6.25-2.88,9.92-3.57,3.67-.69,7.44-.99,11.21-.99s7.54.4,11.21,1.09c3.57.69,6.85,1.98,9.62,3.67,2.88,1.79,5.16,4.07,7.04,6.95,1.89,2.88,2.98,6.55,3.37,10.91h-18.45c-.3-3.77-1.69-6.25-4.27-7.64-2.58-1.29-5.56-1.98-9.03-1.98-1.09,0-2.28.1-3.57.2s-2.48.4-3.47.89c-1.09.5-1.98,1.09-2.68,1.98s-1.09,2.08-1.09,3.47c0,1.79.6,3.18,1.89,4.27,1.29,1.09,2.98,1.98,4.96,2.68,2.08.69,4.37,1.29,7.04,1.89,2.68.6,5.36,1.19,8.14,1.79,2.88.6,5.56,1.39,8.33,2.38,2.68.89,5.06,2.08,7.24,3.67,2.08,1.49,3.77,3.37,5.06,5.66,1.29,2.28,1.89,4.96,1.89,8.33,0,4.66-.89,8.53-2.78,11.71-1.89,3.18-4.37,5.66-7.34,7.64-2.98,1.89-6.45,3.27-10.32,4.07-3.87.79-7.84,1.19-11.91,1.19s-8.14-.4-12.1-1.19c-3.97-.79-7.44-2.18-10.52-4.07-3.08-1.89-5.56-4.46-7.54-7.64s-3.08-7.14-3.18-11.91h18.55c0,1.89.4,3.67,1.29,5.26Z"/>
      <path class="cls-1" d="m127.4,306.27v13h-14.29v35.12c0,3.27.6,5.46,1.69,6.55s3.27,1.69,6.55,1.69c1.09,0,2.18,0,3.18-.1s1.98-.2,2.88-.4v15.08c-1.69.3-3.47.5-5.46.6s-3.97.1-5.85.1c-2.98,0-5.85-.2-8.53-.6s-5.06-1.19-7.14-2.38c-2.08-1.19-3.67-2.88-4.86-5.06-1.19-2.18-1.79-5.06-1.79-8.63v-41.87h-11.91v-13.1h11.81v-21.23h19.45v21.23h14.29Z"/>
      <path class="cls-1" d="m147.94,306.27v13.2h.3c.89-2.18,2.18-4.27,3.67-6.05,1.59-1.89,3.37-3.47,5.36-4.76s4.17-2.38,6.45-3.08,4.66-1.09,7.14-1.09c1.29,0,2.68.2,4.27.69v17.96c-.89-.2-1.98-.3-3.27-.5-1.29-.1-2.48-.2-3.67-.2-3.57,0-6.55.6-9.03,1.79-2.48,1.19-4.46,2.78-5.95,4.86-1.49,2.08-2.58,4.46-3.27,7.24-.6,2.78-.99,5.75-.99,8.93v31.95h-19.45v-70.94h18.45Z"/>
      <path class="cls-1" d="m203.1,398.24c3.77-2.48,6.65-6.55,8.73-12.3l29.67-79.67h-20.24l-15.48,48.52h-.3l-15.97-48.52h-20.74l24.8,66.48c.6,1.39.79,2.88.79,4.37,0,2.08-.6,4.07-1.89,5.75-1.19,1.69-3.18,2.78-5.66,2.98-1.89.1-3.87,0-5.75-.1-1.89-.2-3.77-.4-5.66-.6v13.39h27.09c.2-.1.4-.2.6-.3Z"/>
      <g>
        <path class="cls-1" d="m68.76,243.46c-.79,6.55-3.08,11.91-6.75,15.88-3.67,4.07-8.83,6.05-15.48,6.05-4.86,0-8.93-.89-12.3-2.78-3.37-1.89-6.15-4.37-8.24-7.44-2.08-3.08-3.67-6.65-4.56-10.52-.99-3.87-1.39-7.84-1.39-12.01s.5-8.43,1.39-12.5c.99-4.07,2.48-7.64,4.56-10.72,2.08-3.18,4.86-5.66,8.24-7.54,3.37-1.89,7.54-2.78,12.3-2.78,2.68,0,5.16.4,7.64,1.29,2.38.89,4.56,2.08,6.55,3.67,1.89,1.59,3.47,3.37,4.76,5.46s2.08,4.37,2.48,6.75h20.84c-.6-5.66-2.18-10.72-4.66-15.08-2.48-4.37-5.56-8.04-9.43-11.01-3.77-2.98-8.14-5.26-12.9-6.75-4.76-1.59-9.92-2.38-15.28-2.38-7.54,0-14.29,1.29-20.24,3.97-5.95,2.68-11.01,6.35-15.18,11.01-4.07,4.66-7.24,10.12-9.43,16.37-.69,1.89-1.19,3.87-1.69,5.85v28.67c.5,1.98.99,3.87,1.69,5.75,2.18,6.15,5.36,11.51,9.43,16.07,4.07,4.56,9.13,8.14,15.18,10.81,5.95,2.58,12.7,3.87,20.24,3.87,6.05,0,11.61-.89,16.57-2.78,5.06-1.79,9.43-4.46,13.2-7.94,3.77-3.47,6.75-7.64,9.03-12.6,2.28-4.96,3.67-10.52,4.27-16.57l-20.84-.1h0Z"/>
        <rect class="cls-1" x="0" y="279.18" width="18.16" height="16.07"/>
        <rect class="cls-1" x="0" y="306.27" width="18.16" height="70.94"/>
      </g>
      <rect class="cls-2" x="256.49" y="340.84" width="143.4" height="36.36"/>
      <g>
        <path class="cls-3" d="m280.31,352.77l4.6,11.77h-1.73l-1.29-3.54h-4.98l-1.32,3.54h-1.6l4.58-11.77h1.73Zm1.09,6.91l-1.96-5.49h-.03l-1.99,5.49h3.99Z"/>
        <path class="cls-3" d="m289.39,354.09v-1.32h9.41v1.32h-3.92v10.45h-1.57v-10.45h-3.92Z"/>
        <path class="cls-3" d="m305.9,363.99c-.64.48-1.44.73-2.41.73-.68,0-1.27-.11-1.77-.33s-.92-.53-1.26-.92c-.34-.4-.6-.87-.77-1.42-.17-.55-.27-1.15-.29-1.8,0-.65.1-1.24.3-1.78s.48-1.01.83-1.4c.36-.4.78-.7,1.27-.92.49-.22,1.02-.33,1.61-.33.76,0,1.39.16,1.89.47.5.31.9.71,1.2,1.19.3.48.51,1.01.63,1.58.11.57.16,1.12.14,1.63h-6.38c-.01.37.03.73.13,1.06s.26.63.48.89c.22.26.5.46.84.62.34.15.74.23,1.2.23.59,0,1.08-.14,1.46-.41.38-.27.63-.69.75-1.25h1.38c-.19.96-.6,1.68-1.24,2.16Zm-.34-5.47c-.13-.3-.3-.55-.51-.77s-.47-.38-.76-.51c-.29-.13-.61-.19-.96-.19s-.69.06-.98.19-.54.3-.75.52-.37.48-.49.77c-.12.29-.19.6-.21.93h4.9c-.02-.33-.1-.64-.22-.94Z"/>
        <path class="cls-3" d="m310.04,356.01v1.35h.03c.58-1.03,1.5-1.55,2.77-1.55.56,0,1.03.08,1.4.23.37.15.68.37.91.64s.39.6.49.98.14.8.14,1.26v5.6h-1.4v-5.77c0-.53-.15-.94-.46-1.25s-.73-.46-1.27-.46c-.43,0-.8.07-1.11.2-.31.13-.57.32-.78.56-.21.24-.37.52-.47.85-.1.32-.16.68-.16,1.06v4.81h-1.4v-8.52h1.32Z"/>
        <path class="cls-3" d="m321.53,356.01v1.24h-1.7v5.29c0,.16.01.3.04.4s.08.18.16.23c.08.05.18.09.32.11.14.02.32.02.54.02h.64v1.24h-1.07c-.36,0-.67-.02-.93-.07-.26-.05-.47-.14-.63-.27-.16-.13-.28-.32-.35-.56-.08-.24-.12-.56-.12-.96v-5.42h-1.45v-1.24h1.45v-2.55h1.4v2.55h1.7Z"/>
        <path class="cls-3" d="m324.48,352.77v4.5h.03c.11-.26.26-.49.46-.67.2-.18.42-.33.67-.45.25-.11.51-.2.77-.26s.53-.08.78-.08c.56,0,1.03.08,1.4.23.37.15.68.37.91.64s.39.6.49.98.14.8.14,1.26v5.6h-1.4v-5.77c0-.53-.15-.94-.46-1.25s-.73-.46-1.27-.46c-.43,0-.8.07-1.11.2-.31.13-.57.32-.78.56-.21.24-.37.52-.47.85-.1.32-.16.68-.16,1.06v4.81h-1.4v-11.77h1.4Z"/>
        <path class="cls-3" d="m345.18,352.77v1.32h-6.56v3.74h6.11v1.32h-6.11v4.07h6.61v1.32h-8.17v-11.77h8.13Z"/>
        <path class="cls-3" d="m353.11,364.53v-1.15h-.03c-.23.47-.59.81-1.09,1.02-.49.21-1.04.31-1.63.31-.66,0-1.23-.12-1.72-.36s-.9-.57-1.22-.97c-.32-.41-.57-.88-.73-1.42-.16-.54-.25-1.11-.25-1.71s.08-1.18.24-1.71c.16-.54.4-1.01.72-1.41.32-.4.73-.72,1.22-.96.49-.24,1.06-.35,1.71-.35.22,0,.46.02.71.07.25.04.51.12.76.22s.49.24.72.41c.23.17.42.38.57.63h.03v-4.38h1.4v11.77h-1.4Zm-5.03-3.02c.1.38.26.72.48,1.01.21.3.49.53.82.71s.73.26,1.18.26c.47,0,.87-.09,1.2-.28.33-.19.6-.43.81-.73.21-.3.36-.64.45-1.03.09-.38.14-.77.14-1.17,0-.42-.05-.82-.15-1.21-.1-.39-.26-.73-.47-1.03-.21-.3-.49-.54-.83-.72-.34-.18-.75-.27-1.24-.27s-.87.09-1.2.28-.59.43-.79.74c-.2.31-.34.66-.43,1.05-.09.4-.13.8-.13,1.22,0,.4.05.78.16,1.16Z"/>
        <path class="cls-3" d="m356.75,354.48v-1.71h1.4v1.71h-1.4Zm1.4,1.53v8.52h-1.4v-8.52h1.4Z"/>
        <path class="cls-3" d="m363.97,356.01v1.24h-1.7v5.29c0,.16.01.3.04.4s.08.18.16.23c.08.05.18.09.32.11.14.02.32.02.54.02h.64v1.24h-1.07c-.36,0-.67-.02-.93-.07-.26-.05-.47-.14-.63-.27-.16-.13-.28-.32-.35-.56-.08-.24-.12-.56-.12-.96v-5.42h-1.45v-1.24h1.45v-2.55h1.4v2.55h1.7Z"/>
        <path class="cls-3" d="m365.6,354.48v-1.71h1.4v1.71h-1.4Zm1.4,1.53v8.52h-1.4v-8.52h1.4Z"/>
        <path class="cls-3" d="m368.98,358.53c.18-.54.44-1.02.79-1.42.35-.4.79-.72,1.3-.95.52-.23,1.11-.35,1.78-.35s1.28.12,1.79.35c.51.23.94.55,1.29.95.35.4.62.87.79,1.42s.26,1.13.26,1.76-.09,1.21-.26,1.75c-.18.54-.44,1.01-.79,1.41-.35.4-.78.71-1.29.94-.51.22-1.11.34-1.79.34s-1.26-.11-1.78-.34c-.52-.23-.95-.54-1.3-.94-.35-.4-.62-.87-.79-1.41-.18-.54-.26-1.12-.26-1.75s.09-1.21.26-1.76Zm1.43,3.13c.14.4.33.74.57,1,.24.27.52.48.85.62.32.14.67.21,1.03.21s.71-.07,1.03-.21c.32-.14.61-.35.85-.62.24-.27.43-.6.57-1s.21-.86.21-1.38-.07-.97-.21-1.38-.33-.74-.57-1.01c-.24-.27-.52-.48-.85-.63-.32-.14-.67-.21-1.03-.21s-.71.07-1.03.21c-.32.14-.61.35-.85.63-.24.28-.43.61-.57,1.01s-.21.86-.21,1.38.07.98.21,1.38Z"/>
        <path class="cls-3" d="m379.95,356.01v1.35h.03c.58-1.03,1.5-1.55,2.77-1.55.56,0,1.03.08,1.4.23.37.15.68.37.91.64s.39.6.49.98.14.8.14,1.26v5.6h-1.4v-5.77c0-.53-.15-.94-.46-1.25s-.73-.46-1.27-.46c-.43,0-.8.07-1.11.2-.31.13-.57.32-.78.56-.21.24-.37.52-.47.85-.1.32-.16.68-.16,1.06v4.81h-1.4v-8.52h1.32Z"/>
      </g>
      <g>
        <path class="cls-2" d="m107.88,143.4c0,3.74-.55,7.25-1.65,10.54-1.1,3.28-2.7,6.14-4.78,8.56-2.09,2.42-4.64,4.33-7.66,5.72-3.02,1.39-6.45,2.09-10.28,2.09s-7.28-.7-10.32-2.09c-3.05-1.39-5.61-3.3-7.7-5.72-2.09-2.42-3.68-5.27-4.78-8.56-1.1-3.28-1.65-6.8-1.65-10.54s.55-7.25,1.65-10.54c1.1-3.28,2.7-6.14,4.78-8.56,2.09-2.42,4.65-4.33,7.7-5.72,3.04-1.39,6.48-2.09,10.32-2.09s7.26.7,10.28,2.09c3.02,1.39,5.57,3.3,7.66,5.72,2.09,2.42,3.68,5.27,4.78,8.56,1.1,3.28,1.65,6.8,1.65,10.54Zm-45.67,0c0,3.31.48,6.43,1.44,9.35.96,2.93,2.35,5.48,4.17,7.66,1.82,2.18,4.05,3.92,6.69,5.21,2.64,1.29,5.63,1.94,8.99,1.94s6.34-.65,8.95-1.94c2.61-1.29,4.83-3.03,6.65-5.21,1.82-2.18,3.21-4.73,4.17-7.66.96-2.92,1.44-6.04,1.44-9.35s-.48-6.42-1.44-9.35c-.96-2.92-2.35-5.48-4.17-7.66-1.82-2.18-4.04-3.92-6.65-5.21-2.61-1.29-5.6-1.94-8.95-1.94s-6.35.65-8.99,1.94c-2.64,1.29-4.87,3.03-6.69,5.21-1.82,2.18-3.21,4.74-4.17,7.66-.96,2.92-1.44,6.04-1.44,9.35Z"/>
        <path class="cls-2" d="m114.28,140.31h.22c.34-1.2.95-2.33,1.83-3.38.89-1.05,1.97-1.97,3.24-2.73,1.27-.77,2.68-1.35,4.24-1.76,1.56-.41,3.18-.59,4.85-.54v2.73c-1.44-.19-3.08-.05-4.93.43-1.85.48-3.61,1.53-5.29,3.16-.67.72-1.26,1.41-1.76,2.09-.5.67-.92,1.41-1.26,2.23-.34.82-.6,1.73-.79,2.73-.19,1.01-.31,2.21-.36,3.6v20.21h-2.73v-36.97h2.73v8.2Z"/>
        <path class="cls-2" d="m159.44,132.11v35.02c0,2.06-.24,4.06-.72,6.01-.48,1.94-1.3,3.66-2.48,5.14-1.17,1.49-2.79,2.67-4.84,3.56-2.06.89-4.66,1.33-7.82,1.33-1.96,0-3.8-.2-5.52-.61-1.72-.41-3.23-1.06-4.52-1.94-1.29-.89-2.33-2.06-3.12-3.52-.79-1.46-1.23-3.27-1.33-5.43h2.73c.14,1.63.55,3.02,1.22,4.17.67,1.15,1.55,2.1,2.63,2.84,1.08.74,2.29,1.28,3.63,1.62,1.34.33,2.78.5,4.31.5,2.54,0,4.66-.38,6.37-1.15,1.7-.77,3.06-1.76,4.06-2.98s1.71-2.61,2.12-4.17c.41-1.56.61-3.13.61-4.71v-8.49h-.14c-1.29,2.73-3.06,4.82-5.29,6.26-2.23,1.44-4.93,2.16-8.09,2.16-2.73,0-5.1-.47-7.08-1.4-1.99-.94-3.64-2.23-4.96-3.88-1.32-1.65-2.3-3.58-2.95-5.79-.65-2.21-.97-4.6-.97-7.19,0-2.45.35-4.77,1.04-6.98.69-2.2,1.71-4.14,3.06-5.79,1.34-1.65,3.01-2.97,5-3.96,1.99-.98,4.28-1.47,6.87-1.47,2.92,0,5.62.74,8.09,2.23,2.47,1.49,4.23,3.6,5.29,6.33h.14v-7.7h2.66Zm-16.18,1.51c-2.25,0-4.21.46-5.86,1.37-1.65.91-3.02,2.11-4.1,3.6-1.08,1.49-1.9,3.18-2.45,5.07-.55,1.89-.83,3.82-.83,5.79,0,2.16.28,4.21.83,6.15.55,1.94,1.39,3.63,2.52,5.07,1.13,1.44,2.52,2.58,4.17,3.42,1.65.84,3.56,1.26,5.72,1.26s4.22-.43,5.9-1.29c1.68-.86,3.08-2.04,4.21-3.52,1.13-1.49,1.97-3.18,2.52-5.07.55-1.89.83-3.89.83-6s-.28-4.05-.83-5.97c-.55-1.92-1.39-3.61-2.52-5.07-1.13-1.46-2.53-2.63-4.21-3.49-1.68-.86-3.64-1.29-5.9-1.29Z"/>
        <path class="cls-2" d="m189.5,161.74h-.14c-.43,1.1-1.06,2.15-1.87,3.13-.82.98-1.81,1.86-2.98,2.63-1.18.77-2.51,1.37-3.99,1.8-1.49.43-3.12.65-4.89.65-3.93,0-6.98-.85-9.13-2.55s-3.24-4.33-3.24-7.88c0-2.16.43-3.92,1.29-5.29.86-1.37,1.95-2.45,3.27-3.24,1.32-.79,2.78-1.35,4.39-1.69,1.61-.33,3.15-.58,4.64-.72l4.24-.36c1.97-.14,3.51-.37,4.64-.68,1.13-.31,1.98-.74,2.55-1.29.58-.55.94-1.26,1.08-2.12.14-.86.22-1.94.22-3.24,0-1.01-.19-1.94-.58-2.8-.38-.86-.98-1.63-1.8-2.3-.82-.67-1.87-1.2-3.16-1.58-1.29-.38-2.88-.58-4.75-.58-3.31,0-5.98.82-8.02,2.45-2.04,1.63-3.15,4.1-3.34,7.41h-2.73c.19-4.07,1.5-7.13,3.92-9.17,2.42-2.04,5.86-3.06,10.32-3.06s7.71.88,9.75,2.62c2.04,1.75,3.06,4.04,3.06,6.87v21.5c0,.53.01,1.06.04,1.58.02.53.11,1.01.25,1.44s.38.78.72,1.04c.34.26.81.4,1.44.4.48,0,1.15-.07,2.01-.22v2.3c-.72.19-1.46.29-2.23.29-1.1,0-1.98-.14-2.62-.43s-1.14-.67-1.47-1.15c-.34-.48-.56-1.04-.68-1.69-.12-.65-.18-1.35-.18-2.12v-1.94Zm0-13.66c-.67.82-1.69,1.37-3.06,1.65s-2.89.5-4.57.65l-4.6.43c-1.34.14-2.69.35-4.03.61-1.34.26-2.55.71-3.63,1.33-1.08.62-1.95,1.47-2.62,2.55-.67,1.08-1.01,2.48-1.01,4.21,0,2.73.86,4.76,2.59,6.08,1.73,1.32,4.1,1.98,7.12,1.98s5.58-.56,7.41-1.69c1.82-1.13,3.21-2.42,4.17-3.88.96-1.46,1.57-2.88,1.83-4.24.26-1.37.4-2.29.4-2.77v-6.9Z"/>
        <path class="cls-2" d="m198.35,132.11h2.73v7.91h.14c.48-1.39,1.16-2.63,2.05-3.7.89-1.08,1.92-2,3.09-2.77,1.17-.77,2.46-1.34,3.85-1.73,1.39-.38,2.8-.58,4.24-.58,2.16,0,3.99.26,5.5.79,1.51.53,2.74,1.22,3.7,2.09.96.86,1.71,1.83,2.27,2.91.55,1.08.95,2.17,1.19,3.27.24,1.1.38,2.17.43,3.2.05,1.03.07,1.93.07,2.7v22.87h-2.73v-23.37c0-.91-.07-2.06-.22-3.45-.14-1.39-.56-2.72-1.26-3.99-.7-1.27-1.75-2.36-3.16-3.27-1.41-.91-3.37-1.37-5.86-1.37-2.11,0-3.98.38-5.61,1.15-1.63.77-3.02,1.83-4.17,3.2-1.15,1.37-2.03,3-2.63,4.89-.6,1.89-.9,3.97-.9,6.22v19.99h-2.73v-36.97Z"/>
        <path class="cls-2" d="m233.73,125.13v-7.41h2.73v7.41h-2.73Zm0,43.94v-36.97h2.73v36.97h-2.73Z"/>
        <path class="cls-2" d="m270.41,143.55c-.14-1.63-.56-3.07-1.26-4.32-.7-1.25-1.59-2.28-2.7-3.09-1.1-.81-2.39-1.44-3.85-1.87-1.46-.43-3.03-.65-4.71-.65-2.3,0-4.34.47-6.11,1.4-1.77.94-3.26,2.18-4.46,3.74-1.2,1.56-2.11,3.33-2.73,5.32-.62,1.99-.94,4.04-.94,6.15,0,2.49.29,4.79.86,6.9.58,2.11,1.46,3.94,2.66,5.5,1.2,1.56,2.68,2.77,4.46,3.63,1.77.86,3.86,1.29,6.26,1.29,1.73,0,3.32-.29,4.78-.86,1.46-.58,2.76-1.37,3.88-2.37,1.13-1.01,2.05-2.22,2.77-3.63.72-1.41,1.2-2.96,1.44-4.64h2.73c-.29,2.21-.89,4.17-1.8,5.9-.91,1.73-2.06,3.18-3.45,4.35-1.39,1.18-2.97,2.07-4.75,2.7-1.77.62-3.64.93-5.61.93-3.02,0-5.6-.54-7.73-1.62-2.13-1.08-3.88-2.53-5.25-4.35-1.37-1.82-2.37-3.92-3.02-6.29s-.97-4.85-.97-7.44.37-5.03,1.11-7.34c.74-2.3,1.83-4.32,3.27-6.04,1.44-1.73,3.21-3.09,5.32-4.1,2.11-1.01,4.53-1.51,7.26-1.51,2.01,0,3.89.25,5.65.76,1.75.5,3.31,1.26,4.68,2.27,1.37,1.01,2.48,2.29,3.34,3.85.86,1.56,1.39,3.37,1.58,5.43h-2.73Z"/>
      </g>
    </g>
  </g>
</svg>